<svg width="159" height="42" viewBox="0 0 159 42" fill="none" xmlns="http://www.w3.org/2000/svg">
<path d="M34.9938 5.78568C34.9938 5.78568 28.58 -1.15803 17.7677 0.168436C17.7677 0.168436 5.51218 1.42004 0.844109 14.4751C0.844109 14.4751 -1.96451 22.5955 2.66463 30.6411C2.66463 30.6411 7.17999 38.1178 14.2764 39.9743C14.2764 39.9743 25.1276 44.4148 35.0327 34.9648L30.2898 30.0692C30.2898 30.0692 26.7984 34.9259 18.7169 34.2043C18.7169 34.2043 9.34484 32.9138 7.03027 23.5806C7.03027 23.5806 4.37436 8.40268 19.6272 6.58216C19.6272 6.58216 25.963 6.20189 30.2149 10.5286L34.9967 5.78568H34.9938Z" fill="white"/>
<path d="M24.7295 12.8042H21.2801C20.9543 12.8042 20.6902 13.0683 20.6902 13.3941V16.8435C20.6902 17.1692 20.9543 17.4333 21.2801 17.4333H24.7295C25.0552 17.4333 25.3193 17.1692 25.3193 16.8435V13.3941C25.3193 13.0683 25.0552 12.8042 24.7295 12.8042Z" fill="white"/>
<path d="M24.7295 18.4036H21.2801C20.9543 18.4036 20.6902 18.6677 20.6902 18.9934V22.4428C20.6902 22.7686 20.9543 23.0327 21.2801 23.0327H24.7295C25.0552 23.0327 25.3193 22.7686 25.3193 22.4428V18.9934C25.3193 18.6677 25.0552 18.4036 24.7295 18.4036Z" fill="white"/>
<path d="M19.3217 18.4036H15.8723C15.5466 18.4036 15.2825 18.6677 15.2825 18.9934V22.4428C15.2825 22.7686 15.5466 23.0327 15.8723 23.0327H19.3217C19.6475 23.0327 19.9116 22.7686 19.9116 22.4428V18.9934C19.9116 18.6677 19.6475 18.4036 19.3217 18.4036Z" fill="white"/>
<path d="M13.8004 18.4036H10.351C10.0252 18.4036 9.76111 18.6677 9.76111 18.9934V22.4428C9.76111 22.7686 10.0252 23.0327 10.351 23.0327H13.8004C14.1262 23.0327 14.3903 22.7686 14.3903 22.4428V18.9934C14.3903 18.6677 14.1262 18.4036 13.8004 18.4036Z" fill="white"/>
<path d="M24.7295 23.865H21.2801C20.9543 23.865 20.6902 24.1291 20.6902 24.4549V27.9043C20.6902 28.23 20.9543 28.4941 21.2801 28.4941H24.7295C25.0552 28.4941 25.3193 28.23 25.3193 27.9043V24.4549C25.3193 24.1291 25.0552 23.865 24.7295 23.865Z" fill="white"/>
<path d="M19.3217 23.865H15.8723C15.5466 23.865 15.2825 24.1291 15.2825 24.4549V27.9043C15.2825 28.23 15.5466 28.4941 15.8723 28.4941H19.3217C19.6475 28.4941 19.9116 28.23 19.9116 27.9043V24.4549C19.9116 24.1291 19.6475 23.865 19.3217 23.865Z" fill="white"/>
<path d="M46.8507 15.1352C47.4525 14.4734 48.1622 13.9584 48.9826 13.5931C49.803 13.2278 50.7043 13.0452 51.6864 13.0452C52.7284 13.0452 53.6926 13.2787 54.5849 13.7428C55.4742 14.2069 56.2706 14.8926 56.9713 15.7999L60.1243 12.617C59.1242 11.2696 57.8816 10.2455 56.3994 9.55086C54.9172 8.85319 53.2644 8.50586 51.4439 8.50586C49.821 8.50586 48.3149 8.7993 46.9255 9.38318C45.5332 9.97006 44.3235 10.8025 43.2905 11.8864C42.2604 12.9703 41.458 14.2399 40.8891 15.7011C40.3172 17.1593 40.0327 18.7642 40.0327 20.5099C40.0327 22.2555 40.3172 23.8575 40.8891 25.3187C41.461 26.7769 42.2545 28.0495 43.2755 29.1304C44.2966 30.2143 45.5032 31.0497 46.8956 31.6336C48.2879 32.2175 49.794 32.5109 51.4139 32.5109C53.2554 32.5109 54.9172 32.1576 56.3994 31.4509C57.8816 30.7443 59.1212 29.7143 60.1243 28.3668L56.9713 25.1839C56.2706 26.0912 55.4742 26.7829 54.5849 27.256C53.6926 27.7321 52.7284 27.9686 51.6864 27.9686C50.7043 27.9686 49.803 27.786 48.9826 27.4207C48.1622 27.0554 47.4495 26.5433 46.8507 25.8786C46.2488 25.2169 45.7847 24.4324 45.4553 23.5251C45.126 22.6179 44.9613 21.6148 44.9613 20.5069C44.9613 19.399 45.126 18.3959 45.4553 17.4887C45.7847 16.5814 46.2518 15.7969 46.8507 15.1352Z" fill="white"/>
<path d="M71.1162 15.1352C71.7181 14.4734 72.4277 13.9584 73.2482 13.5931C74.0686 13.2278 74.9699 13.0452 75.952 13.0452C76.994 13.0452 77.9581 13.2787 78.8504 13.7428C79.7397 14.2069 80.5362 14.8926 81.2369 15.7999L84.3898 12.617C83.3897 11.2696 82.1471 10.2455 80.665 9.55086C79.1828 8.85319 77.53 8.50586 75.7094 8.50586C74.0865 8.50586 72.5804 8.7993 71.1911 9.38318C69.7988 9.97006 68.5891 10.8025 67.556 11.8864C66.526 12.9703 65.7236 14.2399 65.1546 15.7011C64.5827 17.1593 64.2983 18.7642 64.2983 20.5099C64.2983 22.2555 64.5827 23.8575 65.1546 25.3187C65.7265 26.7769 66.52 28.0495 67.5411 29.1304C68.5621 30.2143 69.7688 31.0497 71.1611 31.6336C72.5535 32.2175 74.0596 32.5109 75.6795 32.5109C77.521 32.5109 79.1828 32.1576 80.665 31.4509C82.1471 30.7443 83.3867 29.7143 84.3898 28.3668L81.2369 25.1839C80.5362 26.0912 79.7397 26.7829 78.8504 27.256C77.9581 27.7321 76.994 27.9686 75.952 27.9686C74.9699 27.9686 74.0686 27.786 73.2482 27.4207C72.4277 27.0554 71.7151 26.5433 71.1162 25.8786C70.5144 25.2169 70.0503 24.4324 69.7209 23.5251C69.3915 22.6179 69.2268 21.6148 69.2268 20.5069C69.2268 19.399 69.3915 18.3959 69.7209 17.4887C70.0503 16.5814 70.5174 15.7969 71.1162 15.1352Z" fill="white"/>
<path d="M96.4626 8.90112L87.1235 32.1127H92.109L93.9834 27.1392H103.721L105.595 32.1127H110.7L101.272 8.90112H96.4656H96.4626ZM95.5164 23.061L98.8491 14.213L102.182 23.061H95.5164Z" fill="white"/>
<path d="M120.638 15.1352C121.24 14.4734 121.95 13.9584 122.77 13.5931C123.591 13.2278 124.492 13.0452 125.474 13.0452C126.516 13.0452 127.48 13.2787 128.373 13.7428C129.262 14.2069 130.058 14.8926 130.759 15.7999L133.912 12.617C132.912 11.2696 131.669 10.2455 130.187 9.55086C128.705 8.85319 127.052 8.50586 125.232 8.50586C123.609 8.50586 122.103 8.7993 120.713 9.38318C119.321 9.97006 118.111 10.8025 117.078 11.8864C116.048 12.9703 115.246 14.2399 114.677 15.7011C114.105 17.1593 113.82 18.7642 113.82 20.5099C113.82 22.2555 114.105 23.8575 114.677 25.3187C115.249 26.7769 116.042 28.0495 117.063 29.1304C118.084 30.2143 119.291 31.0497 120.683 31.6336C122.076 32.2175 123.582 32.5109 125.202 32.5109C127.043 32.5109 128.705 32.1576 130.187 31.4509C131.669 30.7443 132.909 29.7143 133.912 28.3668L130.759 25.1839C130.058 26.0912 129.262 26.7829 128.373 27.256C127.48 27.7321 126.516 27.9686 125.474 27.9686C124.492 27.9686 123.591 27.786 122.77 27.4207C121.95 27.0554 121.237 26.5433 120.638 25.8786C120.037 25.2169 119.572 24.4324 119.243 23.5251C118.914 22.6179 118.749 21.6148 118.749 20.5069C118.749 19.399 118.914 18.3959 119.243 17.4887C119.572 16.5814 120.04 15.7969 120.638 15.1352Z" fill="white"/>
<path d="M152.635 27.256C151.743 27.7321 150.779 27.9686 149.737 27.9686C148.755 27.9686 147.853 27.786 147.033 27.4207C146.213 27.0554 145.5 26.5433 144.901 25.8786C144.299 25.2169 143.835 24.4324 143.506 23.5251C143.176 22.6179 143.012 21.6148 143.012 20.5069C143.012 19.399 143.176 18.3959 143.506 17.4887C143.835 16.5814 144.302 15.7969 144.901 15.1352C145.503 14.4734 146.213 13.9584 147.033 13.5931C147.853 13.2278 148.755 13.0452 149.737 13.0452C150.779 13.0452 151.743 13.2787 152.635 13.7428C153.525 14.2069 154.321 14.8926 155.022 15.7999L158.175 12.617C157.175 11.2696 155.932 10.2455 154.45 9.55086C152.968 8.85319 151.315 8.50586 149.494 8.50586C147.871 8.50586 146.365 8.7993 144.976 9.38318C143.584 9.97006 142.374 10.8025 141.341 11.8864C140.311 12.9703 139.508 14.2399 138.939 15.7011C138.368 17.1593 138.083 18.7642 138.083 20.5099C138.083 22.2555 138.368 23.8575 138.939 25.3187C139.511 26.7769 140.305 28.0495 141.326 29.1304C142.347 30.2143 143.554 31.0497 144.946 31.6336C146.338 32.2175 147.844 32.5109 149.464 32.5109C151.306 32.5109 152.968 32.1576 154.45 31.4509C155.932 30.7443 157.172 29.7143 158.175 28.3668L155.022 25.1839C154.321 26.0912 153.525 26.7829 152.635 27.256Z" fill="white"/>
</svg>
