<svg width="1200" height="322" viewBox="0 0 1200 322" fill="none" xmlns="http://www.w3.org/2000/svg">
<path d="M389.919 166.077C377.955 231.37 347.744 281.251 297.25 304.574C274.336 315.115 252.845 321 202.146 321H58.3691L70.128 254.284H196.671C272.719 254.489 292.788 221.433 302.725 192.645C306.379 181.889 315.098 148.434 315.303 128.764C315.907 90.2434 297.045 66.9201 232.971 66.9201L103.194 66.7257L114.953 0H258.924C385.457 0 407.961 69.1512 389.919 166.077Z" fill="white"/>
<path d="M692.967 321.202L703.109 263.206H825.988C835.721 263.206 842.414 257.321 843.826 247.793C845.852 238.061 840.991 232.381 831.259 232.381H772.454C726.013 232.381 703.918 205.414 712.023 158.972C720.343 112.54 752.171 85.5635 798.612 85.5635H932.237L921.696 143.56H803.883C794.15 143.56 787.457 149.444 786.035 158.972C784.008 168.705 788.87 174.384 798.612 174.384H857.417C903.848 174.384 925.953 201.351 917.838 247.793C909.722 294.225 878.294 321.202 831.862 321.202H692.957H692.967Z" fill="white"/>
<path d="M510.764 321.204C434.316 321.204 400.043 279.634 413.633 203.186C426.61 126.737 475.886 85.3716 552.334 85.3716H687.586L646.016 321.194H510.764V321.204ZM598.766 143.368H563.888C522.318 143.368 497.787 161.82 490.48 203.186C482.774 244.756 498.186 263.208 539.757 263.208H577.878L598.766 143.368Z" fill="white"/>
<path d="M1094.83 321.205L1118.97 183.926C1123.22 156.959 1112.27 145.2 1085.31 145.2H1046.78L1015.75 321.01H937.478L994.051 0H1072.32L1057.32 85.3721H1115.92C1184.45 85.3721 1209.19 115.378 1197.02 183.926L1172.89 321.205H1094.82H1094.83Z" fill="white"/>
<path d="M200.34 126.93L194.701 158.932C191.16 179.011 178.02 193.656 153.325 193.656H0L5.63892 161.654C9.17987 141.575 22.3203 126.93 47.0148 126.93H200.34Z" fill="white"/>
</svg>
