<?xml version="1.0" encoding="UTF-8"?>
<svg id="Layer_1" xmlns="http://www.w3.org/2000/svg" version="1.1" viewBox="0 0 445 94">
  <!-- Generator: Adobe Illustrator 29.3.1, SVG Export Plug-In . SVG Version: 2.1.0 Build 151)  -->
  <defs>
    <style>
      .st0 {
        fill: #00233b;
      }

      .st1 {
        fill: #fff;
      }

      .st2 {
        fill: #10263b;
      }
    </style>
  </defs>
  <g>
    <g>
      <path class="st2" d="M146.4,92.2l-.3-.8c-1.2.4-2,.5-2.6.5-1.7,0-2.6-1.5-2.6-4.1s1-3.9,2.7-3.9,1.3,0,2.3.3l.2-.9c-.9-.3-1.8-.4-2.5-.4-2.5,0-3.9,1.8-3.9,5s1.4,5,3.6,5c.8,0,1.9-.2,3.1-.7h0Z"/>
      <polygon class="st2" points="155.2 92.8 155.2 83.1 154.1 83.1 154.1 87.2 149.4 87.2 149.4 83.1 148.2 83.1 148.2 92.8 149.4 92.8 149.4 88.1 154.1 88.1 154.1 92.8 155.2 92.8"/>
      <polygon class="st2" points="158.7 92.8 158.7 83.1 157.6 83.1 157.6 92.8 158.7 92.8"/>
      <polygon class="st2" points="168.1 92.8 168.1 83.1 167.1 83.1 167.1 91.7 162.7 83.1 161.1 83.1 161.1 92.8 162.1 92.8 162.1 84.3 166.4 92.8 168.1 92.8"/>
      <path class="st2" d="M174.2,83.1h-1.3l-3.4,9.7h1l.9-2.6h4.2l.9,2.6h1.2l-3.5-9.7h0ZM171.7,89.3l1.7-5.2,1.8,5.2h-3.5Z"/>
      <polygon class="st2" points="202.5 92.8 202.1 83.1 200.5 83.1 197.7 91.8 194.9 83.1 193.2 83.1 192.9 92.8 194 92.8 194.2 84.2 196.9 92.8 198.3 92.8 201.1 84.2 201.3 92.8 202.5 92.8"/>
      <path class="st2" d="M208.6,83.1h-1.3l-3.4,9.7h1l.9-2.6h4.2l.9,2.6h1.2l-3.5-9.7h0ZM206.1,89.3l1.7-5.2,1.8,5.2h-3.5Z"/>
      <polygon class="st2" points="219.1 92.8 219.1 91.9 214.8 91.9 214.8 83.1 213.6 83.1 213.6 92.8 219.1 92.8"/>
      <path class="st2" d="M224.7,83.1h-1.3l-3.4,9.7h1l.9-2.6h4.2l.9,2.6h1.2l-3.5-9.7h0ZM222.2,89.3l1.7-5.2,1.8,5.2h-3.5Z"/>
      <polygon class="st2" points="235.4 83.1 234.2 83.1 231.6 87.6 229 83.1 227.6 83.1 230.9 88.5 230.9 92.8 232.1 92.8 232.1 88.5 235.4 83.1"/>
      <path class="st2" d="M241.8,90c0-1.5-.6-2.1-2.7-2.8-1.8-.6-2.1-.8-2.1-1.7s.7-1.6,1.8-1.6,1.3,0,2.3.3l.2-.9c-.9-.3-1.8-.4-2.5-.4-1.8,0-2.9,1-2.9,2.7s2.2,2.4,3.8,3.1c.8.3.9.7.9,1.4,0,1-.9,1.7-2.2,1.7s-1.5,0-2.4-.4l-.2.9c1.1.3,1.8.4,2.8.4,1.9.2,3.2-.9,3.2-2.7h0Z"/>
      <polygon class="st2" points="244.8 92.8 244.8 83.1 243.6 83.1 243.6 92.8 244.8 92.8"/>
      <path class="st2" d="M251,83.1h-1.3l-3.4,9.7h1l.9-2.6h4.2l.9,2.6h1.2l-3.5-9.7h0ZM248.5,89.3l1.7-5.2,1.8,5.2h-3.5Z"/>
      <path class="st2" d="M117,88.8v-5.7h-1v6.2c0,.9,0,1.4-.3,1.7-.3.6-1.1,1-2.1,1-1.6,0-2.4-.7-2.4-2.3v-6.5h-1.2v5.7c0,1.8,0,2.3.5,2.9.5.8,1.6,1.2,2.9,1.2s2.1-.3,2.7-.9.9-1.2.9-3.3h0Z"/>
      <polygon class="st2" points="125.9 92.8 121.5 87.6 125.8 83.1 124.4 83.1 120.2 87.5 120.2 83.1 119.1 83.1 119.1 92.8 120.2 92.8 120.2 87.8 124.5 92.8 125.9 92.8"/>
      <rect class="st2" x="132.1" y="82.1" width=".5" height="11.7"/>
      <rect class="st2" x="184.4" y="82.1" width=".5" height="11.7"/>
      <path class="st2" d="M250.9,68.8v-11.6c0-1.5-.8-2.7-2.7-2.7s-1.9.3-2.6,1c.2.5.2,1.1.2,2.3v11.1h-3.7v-11.7c0-1.3-.4-2.7-2.7-2.7s-1.6.2-2.3.5v13.9h-3.7v-15.4c1.4-.6,3.4-1.3,6.2-1.3s3.8.5,4.8,1.3c1.1-.8,2.6-1.3,4.7-1.3,3.9,0,5.6,2.3,5.6,5.1v11.7h-3.8v-.2Z"/>
      <path class="st2" d="M211.7,68.8v-11.4c0-1.6-.7-2.7-2.7-2.7s-2,.3-2.7.8v13.4h-3.7v-22h3.7v6.1c1-.4,2.4-.7,3.7-.7,4.1,0,5.6,2.4,5.6,4.9v11.7h-3.9Z"/>
      <path class="st2" d="M166.3,50.1c-1.4,0-2.2-.9-2.2-2s.7-2,2.2-2,2.2.9,2.2,2-.8,2-2.2,2h0Z"/>
      <path class="st2" d="M180.1,68.8v-11.6c0-1.3-.5-2.7-2.9-2.7s-1.8.2-2.5.5v13.9h-3.7v-15.4c1.4-.6,3.6-1.3,6.4-1.3,4.9,0,6.5,2.4,6.5,5v11.7h-3.8Z"/>
      <polygon class="st2" points="164.4 68.8 164.4 52.4 168.2 52.4 168.2 68.8 164.4 68.8"/>
      <path class="st2" d="M159.6,69c-3.2,0-4.5-1.8-4.5-4.5v-9.8h-1.8v-2.4h1.8v-3.3l3.7-1v4.3h2.6v2.4h-2.6v9.9c0,1.5.8,1.9,1.8,1.9h1.1v2.4c-.4,0-1.3.2-2.1.2h0Z"/>
      <path class="st2" d="M149.6,69c-3.2,0-4.5-1.8-4.5-4.5v-9.8h-1.8v-2.4h1.8v-3.3l3.7-1v4.3h2.6v2.4h-2.6v9.9c0,1.5.8,1.9,1.8,1.9h1.1v2.4c-.3,0-1.3.2-2.1.2h0Z"/>
      <path class="st2" d="M122.6,68.8l-7.8-13.2c-.5-.8-.9-1.6-1.3-2.6h0c0,1,.2,1.9.2,2.7v13.1h-3.6v-20.9h3.8l7.3,12.3c.4.7.8,1.4,1.2,2.4h0v-14.7h3.6v20.9h-3.4Z"/>
      <path class="st2" d="M224.2,52.1c-2.6,0-4.5.7-5.6,1.2l.8,2.3c1-.5,2.5-1,4.1-1s3.2.5,3.2,2.7v.9c-.3,0-1.4-.2-2.4-.2-3.8,0-6.8,2-6.8,5.9s2.1,5.6,6.8,5.6,4.6-.5,6-1.2v-10.4c0-4.3-2.7-5.8-6.1-5.8h0ZM226.8,66.8c-.4.2-1.3.4-2.2.4-2,0-3.3-1.3-3.3-3.5s1.2-3.6,3.4-3.6,1.7.2,2.1.2v6.5h0Z"/>
      <path class="st2" d="M194,52.1c-5.3,0-7.9,3.4-7.9,8.7s2.6,8.2,6.6,8.2,2.6-.2,3.2-.6v1c0,2.2-1.2,3.6-3.9,3.6s-3-.5-4-.9l-1,2.3c1.2.7,3.2,1.2,5.7,1.2,4.1,0,6.9-2.3,6.9-6.6v-15.7c-1.2-.6-3.1-1.2-5.6-1.2h0ZM195.9,66c-.5.3-1.3.5-2.1.5-2.6,0-3.8-2-3.8-5.7s1.2-6.3,4-6.3,1.4,0,2,.4v11.1h0Z"/>
      <path class="st2" d="M135.2,52.1c-4.6,0-7,3.5-7,8.5s2.3,8.5,7,8.5,7-3.5,7-8.5c-.1-4.9-2.4-8.5-7-8.5h0ZM135.4,66.9c-2.6,0-3-3.3-3-6.2s.4-6.3,3-6.3,3,3.3,3,6.3-.4,6.2-3,6.2h0Z"/>
      <path class="st2" d="M222.3,26.9c-1.4,0-1.7.7-1.7,1.7v.5h2v2h-2v9.2h-3v-9.2h-1.2v-2h1.2v-.8c0-2.2,1.5-3.5,3.9-3.5s.9,0,1.3.1v2h-.5Z"/>
      <path class="st2" d="M194.5,44.8c-1.7,0-3-.4-3.8-.8l.7-1.7c.7.3,1.5.6,2.8.6,1.9,0,2.5-.9,2.5-2.3v-.7c-.4.2-1.1.5-2.3.5-2.8,0-4-1.4-4-3.6v-7.6h3v7.5c0,1,.4,1.8,1.8,1.8s1.2-.2,1.5-.4v-8.9h3v10.8c-.2,3.4-2.3,4.8-5.2,4.8h0Z"/>
      <path class="st2" d="M186.5,40.4c-2.2,0-3.3-1.2-3.3-3v-6.3h-1.2v-2h1.2v-2.3l3-.8v3.1h1.8v2h-1.8v6c0,1,.5,1.3,1.2,1.3h1v1.9c-.2,0-.8.2-1.9.2h0Z"/>
      <polygon class="st2" points="177 40.3 177 29.1 180 29.1 180 40.3 177 40.3"/>
      <path class="st2" d="M170.9,40.5c-1.5,0-2.6-.4-3.5-.8l.7-1.9c.6.3,1.4.7,2.3.7s1.7-.4,1.7-1.2-.5-1.2-1.8-1.7c-2.2-.9-2.6-2.2-2.6-3.4,0-1.8,1.4-3.3,3.8-3.3s2.4.4,3.2.8l-.8,1.7c-.4-.2-1.2-.6-2-.6s-1.5.4-1.5,1.2.8,1.1,1.8,1.5c2.2.9,2.8,2.2,2.8,3.6,0,2-1.7,3.4-4.1,3.4h0Z"/>
      <path class="st2" d="M166.5,31.1c-.2-.1-.9-.1-1.4-.1s-.9.1-1.2.1v9.2h-3v-10.6c.4-.2,2.2-.8,4.1-.8s1.4.1,1.9.1l-.4,2.1h0Z"/>
      <path class="st2" d="M135.3,27.7c-1.1,0-1.6-.7-1.6-1.5s.5-1.5,1.6-1.5,1.6.7,1.6,1.5c-.1.8-.6,1.5-1.6,1.5h0Z"/>
      <path class="st2" d="M144.9,40.3h-2.8l-3.8-11.2h3.2l1.4,5.3c.1.5.5,1.8.7,2.5h.1c.1-.7.4-2,.6-2.5l1.5-5.3h3l-3.9,11.2h0Z"/>
      <polygon class="st2" points="133.7 40.3 133.7 29.1 136.7 29.1 136.7 40.3 133.7 40.3"/>
      <path class="st2" d="M178.6,27.7c-1.1,0-1.6-.7-1.6-1.5s.5-1.5,1.6-1.5,1.6.7,1.6,1.5-.6,1.5-1.6,1.5h0Z"/>
      <path class="st2" d="M128.6,40.3v-7.9c0-.8-.4-1.6-1.8-1.6s-1.2.1-1.5.3v9.2h-3v-10.6c1.2-.5,2.8-.9,4.6-.9,3.4,0,4.6,1.7,4.6,3.6v7.9s-2.9,0-2.9,0Z"/>
      <path class="st2" d="M115.1,40.5c-2.9,0-5.1-1.5-5.1-4.5v-10h3.1v10c0,1.4.7,2.1,2,2.1s2-.7,2-2.1v-10h3.1v10c0,3-2.2,4.5-5.1,4.5h0Z"/>
      <path class="st2" d="M210.4,28.8c-3.3,0-4.9,2.5-4.9,5.8s1.6,5.9,4.9,5.9,4.9-2.5,4.9-5.9-1.6-5.8-4.9-5.8h0ZM210.4,38.6c-1.5,0-1.9-1.7-1.9-3.9s.4-3.8,1.9-3.8,1.9,1.7,1.9,3.8-.4,3.9-1.9,3.9h0Z"/>
      <path class="st2" d="M159,34.4c0-3.6-1.8-5.6-4.9-5.6s-5,2.2-5,5.8,2.1,5.9,5.4,5.9,3-.4,4-.9l-.7-2c-.8.4-1.7.7-3,.7s-2.6-.6-2.8-2.8h7v-1.1h0ZM156.1,33.7h-4.2c0-2.2.9-3,2.1-3s2.1.7,2.1,2.8v.2h0Z"/>
    </g>
    <g>
      <rect class="st2" x=".3" y="-.2" width="94" height="94"/>
      <g>
        <path class="st1" d="M63.7,22.4c-2.1-1.2-4.1-2.1-6.9-2.7v5.6c2.4.5,4.7,1.4,6.9,2.4,0,0,0-5.3,0-5.3Z"/>
        <path class="st1" d="M54.4,40.7c-.7,0-1.2.5-1.2,1.3l-.4,11.4h3.2l-.4-11.4c0-.7-.5-1.3-1.2-1.3Z"/>
        <path class="st1" d="M57.3,72.2c-3.4,0-5.8-.8-8.9-2.4-3.3-1.7-7-3.2-11.8-3.2s-9.2,1.6-12.8,6.9c4.3-2.7,8.3-3.5,11.7-3.5s6.3.9,9.1,2.4c3.2,1.6,5.9,2.8,9.8,2.8s8.1-1.5,11.8-6.3c-2.9,2.5-6.1,3.3-8.9,3.3Z"/>
        <path class="st1" d="M38.4,64.8c3,0,6.6.8,10.5,3v-11.3l-1.6-2.1v-15.6l3.2-5-1.4,4.8c.9,0,1.8-.2,2.8-.2,3.2,0,6.1.5,8.6,1.5l3.2-3v-8.1c-2.1-1-4.4-1.8-6.9-2.4-1.5-.4-3-.6-4.6-.8v-7c-1.7-.2-3.5-.4-5.3-.4s-3.4.1-5,.3v6.6c-1.6.2-3.1.5-4.6.9v-6.4c-2.6.7-5.1,1.8-7.4,3v13.6l3.1,3-.9,15.3-2.5,2.5v8.9l.9.9c2.1-1.1,4.7-2,7.9-2ZM37.9,42c0-.7.5-1.3,1.2-1.3s1.2.5,1.2,1.3l.4,11.4h-3.2s.4-11.4.4-11.4Z"/>
      </g>
    </g>
  </g>
  <g>
    <g>
      <path class="st0" d="M385.8,60.1v4.4h-1.4v-4.4l-2.7-6.6h1.5l1.9,5.1,2-5.1h1.5l-2.7,6.6h0Z"/>
      <path class="st0" d="M390.5,64.4v-10.9h4.6v1.2h-3.3v3.4h3v1.2h-3v3.8h3.4v1.2h-4.7Z"/>
      <path class="st0" d="M402.6,64.4l-.6-2.6h-3.2l-.6,2.6h-1.4l2.7-10.9h1.8l2.7,10.9h-1.5.1ZM400.4,54.8h0l-1.4,6h2.8l-1.3-6h-.1Z"/>
      <path class="st0" d="M410.6,64.4l-1.8-4.9h-1.3v4.9h-1.4v-10.9h2.8c.4,0,.8,0,1.1.2.4,0,.7.3.9.5s.5.5.6.9c.2.4.2.8.2,1.4s0,.8-.2,1.2c-.1.3-.3.6-.4.8s-.4.4-.6.6c-.2,0-.4.2-.6.3l2.1,5.1h-1.5,0ZM410.5,56.5c0-.4,0-.7-.2-.9s-.2-.4-.4-.6c-.2,0-.4-.2-.6-.3h-1.8v3.8h1.3c.5,0,.9-.2,1.3-.5.3-.3.5-.8.5-1.4h0Z"/>
      <path class="st0" d="M419.4,61.5c0,.5,0,.9-.2,1.3-.2.4-.4.7-.6,1s-.6.5-.9.6c-.4,0-.7.2-1.2.2s-1.1,0-1.6-.3-.9-.5-1.2-.9l.8-1c.2.3.5.6.9.7s.7.3,1.1.3.8-.2,1.1-.5c.3-.3.4-.8.4-1.3s0-.5-.1-.7c0-.2-.2-.4-.4-.6s-.4-.3-.6-.5-.4-.3-.7-.4c-.3,0-.6-.3-.8-.5-.3-.2-.5-.4-.7-.6s-.4-.5-.5-.8-.2-.7-.2-1.2,0-1,.2-1.4.4-.7.7-1c.3-.3.6-.4.9-.6.4,0,.7-.2,1.1-.2s1,0,1.4.3c.4.2.8.4,1,.8l-.8,1c-.4-.5-.9-.8-1.6-.8s-.4,0-.6,0-.4.2-.5.3c-.2.2-.3.3-.4.6s-.1.5-.1.8,0,.5.1.7.2.4.4.5c.2.2.3.3.5.4.2,0,.4.2.6.4.3,0,.6.3.8.5s.5.4.8.6c.2.2.4.5.6.9.1.3.2.7.2,1.2h.1Z"/>
      <path class="st0" d="M425.7,64.4v-10.9h1.4v10.9h-1.4Z"/>
      <path class="st0" d="M435.1,64.4l-3.5-8.5h0v8.5h-1.3v-10.9h1.7l3.4,8.5h0v-8.5h1.3v10.9h-1.6Z"/>
      <path class="st0" d="M390.4,79.8v-9h0l-2.4,9h-1.2l-2.4-9h0v9h-1.3v-10.9h2l2.3,8.7h0l2.3-8.7h2.1v10.9h-1.4Z"/>
      <path class="st0" d="M399.7,79.8l-.6-2.6h-3.2l-.6,2.6h-1.4l2.7-10.9h1.8l2.7,10.9h-1.5.1ZM397.6,70.2h0l-1.4,6h2.8l-1.3-6h-.1Z"/>
      <path class="st0" d="M403.3,79.8v-10.9h1.4v9.6h3.1v1.3h-4.5Z"/>
      <path class="st0" d="M414.5,79.8l-.6-2.6h-3.2l-.6,2.6h-1.4l2.7-10.9h1.8l2.7,10.9h-1.5.1ZM412.4,70.2h0l-1.4,6h2.8l-1.3-6h-.1Z"/>
      <path class="st0" d="M420.6,75.5v4.4h-1.4v-4.4l-2.7-6.6h1.5l1.9,5.1,2-5.1h1.5l-2.7,6.6h0Z"/>
      <path class="st0" d="M430.1,76.9c0,.5,0,.9-.2,1.3s-.4.7-.6,1-.6.5-.9.6c-.4,0-.7.2-1.2.2s-1.1,0-1.6-.3-.9-.5-1.2-.9l.8-1c.2.3.5.6.9.7s.7.3,1.1.3.8-.2,1.1-.5c.3-.3.4-.8.4-1.3s0-.5-.1-.7c0-.2-.2-.4-.4-.6s-.4-.3-.6-.5-.4-.3-.7-.4c-.3,0-.6-.3-.8-.5-.3-.2-.5-.4-.7-.6s-.4-.5-.5-.8-.2-.7-.2-1.2,0-1,.2-1.4.4-.7.7-1c.3-.3.6-.4.9-.6s.7-.2,1.1-.2,1,0,1.4.3c.4.2.8.4,1,.8l-.8,1c-.4-.5-.9-.8-1.6-.8s-.4,0-.6,0-.4.2-.5.3c-.2.2-.3.3-.4.6s-.1.5-.1.8,0,.5.1.7.2.4.4.5c.2.2.3.3.5.4s.4.2.6.4c.3,0,.6.3.8.5s.5.4.8.6c.2.2.4.5.6.9.1.3.2.7.2,1.2h.1Z"/>
      <path class="st0" d="M432.8,79.8v-10.9h1.4v10.9h-1.4Z"/>
      <path class="st0" d="M442.1,79.8l-.6-2.6h-3.2l-.6,2.6h-1.4l2.7-10.9h1.8l2.7,10.9h-1.5.1ZM439.9,70.2h0l-1.4,6h2.8l-1.3-6h-.1Z"/>
    </g>
    <path class="st0" d="M377.2,51.5c-.7-1.1-1.6-2.2-2.5-3.1-2.2-2.2-5.1-4-8.8-5.3-3.7-1.3-8.2-1.9-13.6-1.9s-7,.3-10.1,1-5.7,1.7-8,3.2l1.4-14.7c2.7,1.2,5.5,1.9,8.3,2.3,2.8.4,5.1.5,7.1.5s4.7-.2,7.2-.8c2.5-.5,4.9-1.3,7.3-2.3,2.3-1,4.5-2.2,6.5-3.7s3.6-3.2,4.9-5.1v-4.6c-1.6.4-3.4.8-5.3,1.1s-4,.6-6.1.8c-2.1.2-4.1.3-6.2.4-2,.1-3.9.2-5.7.2s-4.2,0-6.6-.1c-2.4,0-4.8-.2-7.2-.3-2.4-.1-4.8-.3-7.1-.5-2.3-.2-4.4-.5-6.3-.8l-2.9,31.8h0c-.5,2.3-2.6,3.4-6.3,3.4s-3,0-4.3-.4-5.1-.6-6.5-.9c-1.3-.4-2.7-.7-4.3-.9-1.6-.3-3.5-.4-5.7-.4s-5.3.4-7.4,1.2-3.8,1.9-5.3,3.2c.6-2.4,2-4.1,4.3-5.3s4.9-2.2,8-3.1c3.1-.9,6.3-1.8,9.7-2.7,3.4-.9,6.6-2.2,9.5-3.9s5.3-3.9,7.2-6.7c1.9-2.8,2.8-6.6,2.8-11.4s-.8-7.1-2.3-9.6c-1.6-2.6-3.6-4.6-6.1-6s-5.3-2.5-8.5-3.1-6.4-.9-9.6-.9c-4.7,0-8.7.6-12.1,1.9-3.3,1.3-6.1,2.9-8.3,4.8s-3.8,4.1-4.8,6.5-1.5,4.7-1.5,6.8.7,4.9,2.2,6.6,3.5,2.6,6.2,2.6,4.9-.8,6.4-2.5,2.3-3.7,2.3-6.1-.6-3.7-1.8-5.1c-1.2-1.4-2.5-2.1-3.8-2.2.5-1.3,1.5-2.3,2.9-3.1,1.4-.8,3.4-1.2,6.1-1.2s2.3.2,3.3.5c1.1.4,2,.9,2.9,1.7.8.8,1.5,1.7,2,2.9.5,1.2.8,2.5.8,4.1,0,3.2-.6,5.9-1.9,7.9-1.2,2-2.9,3.9-4.8,5.5-2,1.6-4.1,3.2-6.5,4.8s-4.7,3.6-7,6-4.4,5.4-6.3,8.9-3.3,8.1-4.3,13.7h9.1c1.2-2.7,3.8-4.1,7.8-4.1s4.2.3,5.8.8c1.6.5,3.3,1.1,5.1,1.8,1.8.6,3.9,1.2,6.3,1.8,2.4.5,8.2.8,12.2.8s1.8,0,2.6-.2c-.5,1.3-.8,2.7-.8,4.3,0,3,.8,5.8,2.3,8.4s3.6,4.7,6.2,6.6c2.6,1.8,5.6,3.3,9,4.3s7,1.5,10.6,1.5,8.8-.5,12.9-1.5,7.7-2.6,10.8-4.7c2.6-1.8,4.8-4.1,6.5-6.9v-28.4h0ZM355.2,79.3c-2.4,3.3-6.5,5-12.1,5s-6.3-.5-8.4-1.5-3.6-2.3-4.2-3.9c1.4,0,2.8-.8,3.9-2.2s1.8-3.1,1.8-5.1-.8-4.5-2.4-6.2c-1.5-1.6-3.4-2.4-5.9-2.5.5-.8.9-1.6,1.2-2.5.5-1.5.8-3.1.8-4.9v-1.7c2.3-1.4,4.7-2.6,7.2-3.3,2.7-.8,5.6-1.2,9-1.2s7.8,1.4,9.8,4c2,2.7,3,6.5,3,11.5s-1.2,11.2-3.7,14.5h0Z"/>
  </g>
</svg>